<svg width="216" height="56" viewBox="0 0 216 56" fill="none" xmlns="http://www.w3.org/2000/svg">
<path d="M180.965 0C186.127 2.406e-05 190.828 0.715633 195.07 2.14746C199.363 3.52824 203.069 5.49772 206.187 8.05469C209.304 10.5606 211.707 13.5267 213.394 16.9531C215.131 20.3283 216 23.9851 216 27.9229C216 31.9629 215.131 35.6966 213.394 39.123C211.707 42.4984 209.304 45.4644 206.187 48.0215C203.069 50.5274 199.363 52.4968 195.07 53.9287C190.828 55.3095 186.152 56 181.041 56C175.828 56 171.075 55.3094 166.782 53.9287C162.489 52.4968 158.784 50.5274 155.666 48.0215C152.548 45.4644 150.146 42.4984 148.459 39.123C147.16 36.4831 146.363 33.676 146.064 30.7021C144.411 32.5983 142.357 34.1538 139.898 35.3643C139.546 35.5408 139.186 35.7054 138.821 35.8623L153.468 55.2324H134.685L121.52 37.7422H112.376V55.2324H96.8896V19.958L81.0762 55.2324H66.127L47.6133 14.959H15.8691V21.7861H47.9912V34.3672H15.8691V41.8086H52.208V55.2324H0V1.53418H57.9238L68.0439 24.3945C68.3506 25.1105 68.7845 26.0823 69.3467 27.3096C69.96 28.537 70.5993 29.9689 71.2637 31.6055C71.9792 33.1909 72.6696 34.904 73.334 36.7451C73.4311 37.0142 73.5253 37.2853 73.6191 37.5576C73.854 36.9135 74.0908 36.2844 74.3301 35.6709C75.1989 33.523 76.0426 31.5285 76.8604 29.6875C77.7292 27.8465 78.4697 26.1332 79.083 24.5479L89.0498 1.53418H127.861C132.972 1.53418 137.164 2.22467 140.435 3.60547C143.757 4.9351 146.21 6.92967 147.794 9.58887C148.726 11.0759 149.392 12.7546 149.793 14.624C151.371 12.1643 153.354 9.97424 155.742 8.05469C158.86 5.49762 162.54 3.52828 166.782 2.14746C171.075 0.715616 175.803 0 180.965 0ZM180.965 15.3428C178.307 15.3428 175.853 15.675 173.604 16.3398C171.407 16.9535 169.491 17.8484 167.855 19.0244C166.22 20.1495 164.967 21.4794 164.099 23.0137C163.23 24.5479 162.795 26.21 162.795 28C162.795 29.79 163.23 31.4521 164.099 32.9863C164.967 34.5206 166.22 35.8755 167.855 37.0518C169.491 38.1768 171.407 39.0725 173.604 39.7373C175.853 40.351 178.307 40.6572 180.965 40.6572C183.622 40.6572 186.05 40.351 188.248 39.7373C190.497 39.0725 192.413 38.1768 193.997 37.0518C195.633 35.8755 196.885 34.5206 197.754 32.9863C198.674 31.4521 199.134 29.79 199.134 28C199.134 26.21 198.674 24.5479 197.754 23.0137C196.885 21.4794 195.633 20.1495 193.997 19.0244C192.413 17.8484 190.497 16.9535 188.248 16.3398C186.05 15.675 183.622 15.3428 180.965 15.3428ZM112.376 26.2354H126.941C128.168 26.2354 129.293 26.0312 130.315 25.6221C131.337 25.2129 132.155 24.5734 132.769 23.7041C133.433 22.8347 133.765 21.7349 133.765 20.4053C133.765 19.0245 133.433 17.9247 132.769 17.1064C132.155 16.2371 131.311 15.5986 130.238 15.1895C129.165 14.7803 127.99 14.5752 126.712 14.5752H112.376V26.2354Z" fill="#1D1C1F"/>
</svg>
